<?xml version="1.0" encoding="UTF-8"?>
<svg id="Capa_1" data-name="Capa 1" xmlns="http://www.w3.org/2000/svg" viewBox="0 0 400 399.2">
  <defs>
    <style>
      .cls-1 {
        fill: #fff;
      }

      .cls-2 {
        fill: #467b9d;
      }
    </style>
  </defs>
  <path class="cls-2" d="M400,3.25c0-2.76-.59-3.25-3.29-3.25C265.56,.09,134.41,.09,3.25,0,.49,0,0,.59,0,3.29,.09,134.17,.09,265.06,0,395.95c0,2.76,.59,3.25,3.29,3.25,65.57-.1,131.15-.08,196.73-.08s131.15-.02,196.73,.08c2.76,0,3.25-.59,3.25-3.29-.09-130.88-.09-261.77,0-392.66Z"/>
  <path class="cls-1" d="M219.04,277.63c-16.63,0-33.25,.09-49.88-.07-3.12-.03-3.48,1.09-3.03,3.69,1.04,6.04,4.4,10.1,10.06,12.31,1.36,.53,2.78,.89,4.16,1.34,2.01,.66,3.13,1.96,2.82,4.16-.32,2.26-1.85,3.08-3.95,3.09-7.05,.02-14.1,.02-21.15,.02-9.18,0-18.35-.02-27.53,.02-2.47,.01-4.68-.45-5.05-3.31-.35-2.63,1.54-3.57,3.73-4.36,8.54-3.08,11.33-6.55,11.39-15.6,.18-28.33,.13-56.66,.15-84.99,.01-15.3-.18-30.59,.07-45.89,.15-9.09-3.03-15.42-12.18-18.05-2.08-.6-3.59-1.98-3.14-4.4,.43-2.32,2.13-3.19,4.38-3.19,15.56,0,31.12,0,46.68,0,1.04,0,2.3-.23,2.32,1.38,.04,3.06,.03,6.12,0,9.18-.01,1.46-1.16,1.15-2.02,1.18-2.92,.11-5.85,.23-8.77,.25-2.02,.01-2.69,.85-2.69,2.91,.06,24.74,.04,49.48,.02,74.22,0,1.43-.06,2.63,1.95,2.63,10.89-.03,21.84,.77,32.53-2.06,12.81-3.39,20.92-11.41,23.77-24.56,2.09-9.64,2.23-19.27-.21-28.82-2.08-8.14-6.42-14.84-13.86-19.13-1.6-.92-2.31-1.93-2.15-3.74,.13-1.45,.03-2.92,.03-4.39q0-7.66,7.13-5.21c21.42,7.34,36.35,26.51,36.82,47.25,.46,20.07-9.3,35.42-27.95,43.68-16.41,7.26-33.77,8.85-51.45,8.24-6.64-.23-6.65-.33-6.65,6.46,0,11.84,.05,23.68-.04,35.51-.02,2.84,.39,3.78,3.55,2.65,8.31-2.96,11.33-6.3,11.71-14.97,.35-8.1,.34-16.22,.26-24.33-.02-2.53,.64-3.32,3.26-3.41,6.1-.23,12.22-.62,18.2-1.98,2.37-.54,3.25-.08,3.21,2.6-.15,11.17,.03,22.35-.13,33.52-.04,2.85,.49,4.02,3.65,3.87,10.48-.51,21.01,.65,31.47-.78,9.36-1.28,15.2-6.9,18.57-15.44,.63-1.6,1.08-3.28,1.81-4.82,1.59-3.36,4.47-4.52,7.93-3.81,3.3,.67,5.77,2.88,5.62,6.3-.43,9.69-1.3,19.36-1.96,29.04-.19,2.7-2.22,1.76-3.6,1.77-16.63,.05-33.25,.03-49.88,.03Z"/>
  <path class="cls-1" d="M193.39,97.83c7.44,0,14.89,.02,22.33,0,2.42,0,4.71,.31,5.14,3.2,.43,2.86-1.61,3.8-3.95,4.55-7.25,2.33-11.19,7.15-11.2,15-.01,12.62-.19,25.24-.23,37.87-.04,15.42-.07,30.84,.07,46.26,.02,2.71-.75,3.97-3.39,4.78-5.77,1.76-11.67,2.33-17.62,2.9-3.09,.3-3.69-.74-3.68-3.67,.13-24.99,.09-49.98,.07-74.97,0-4.52-.26-9.03-.27-13.55-.02-7.53-3.92-12.09-10.81-14.45-.12-.04-.23-.14-.36-.17-2.41-.58-4.4-1.72-3.96-4.55,.48-3.09,3-3.23,5.52-3.21,7.44,.04,14.89,.01,22.33,.02Z"/>
</svg>